<svg width="138" height="49" xmlns="http://www.w3.org/2000/svg"><g fill="none" fill-rule="evenodd"><path fill="#16222A" d="M16.763 12.27L8.31 15.715l.072-.007v3.489-.008l6.358 2.557v-3.474l-2.129-.825 4.152-1.703V12.27"/><path fill="#6ABC96" d="M25.453 14.938l-6.378-2.575v3.474l2.006.842-4.318 1.704v3.474l8.598-3.445.073.007v-3.488l.019.007"/><path d="M28.035 23.055L16.85 27.578 5.202 22.866v-11.25l11.65-4.711 11.183 4.522v11.628zm5.78-9.245V0l-5.78 2.388v2.134L16.93.036.055 6.936H0v20.81l16.93 6.812 11.105-4.598v2.125l5.78 2.375V20.673v.004-6.87.003zm19.481 9.189L50.953 8.597h-.029L48.77 22.999h4.526zM49.782 4.49h2.198l4.526 25.45h-2.082l-.839-5.163h-5.09l-.766 5.163h-2.04l4.093-25.45zm19.474 7.028c0-1.85-.212-3.186-.636-4.006-.424-.819-1.09-1.229-1.995-1.229h-1.91V28.09h1.78c1.195 0 1.976-.545 2.342-1.634.29-.897.434-2.237.434-4.02l-.015-10.917zm-6.68-7.028h3.919c2.284 0 3.74.935 4.367 2.806.366 1.089.549 2.573.549 4.453l.014 10.903c0 2.65-.376 4.528-1.128 5.632-.751 1.104-2.048 1.656-3.89 1.656h-3.831V4.49zm23.263 0h2.068L83.8 29.94h-2.241L77.033 4.49H79.1l3.557 20.851h.014l3.167-20.85m8.254-.001h6.724v1.678h-4.569v9.948h4.295v1.75h-4.295v10.367h4.526v1.707h-6.68V4.49m13.473 25.45h2.155V4.49h-2.155zm8.254-25.45h7.186v1.678h-2.386V29.94h-2.14V6.168h-2.66V4.49m12.143 3.905c.145-1.38.552-2.427 1.222-3.146.67-.717 1.718-1.077 3.145-1.077 1.426 0 2.42.357 2.979 1.07.308.386.55.772.723 1.157.366.78.554 2.641.564 5.581v1.432h-2.213v-1.59c0-2.237-.072-3.591-.217-4.064-.144-.472-.294-.829-.448-1.07-.28-.443-.78-.665-1.504-.665-1.465 0-2.198 1.364-2.198 4.092 0 .955.092 1.603.275 1.945.183.342.32.61.412.802.092.193.706.859 1.844 1.996l1.388 1.403c2.053 2.11 3.08 4.533 3.08 7.266 0 2.733-.393 4.533-1.179 5.4-.785.868-1.95 1.302-3.491 1.302-2.372 0-3.736-1.432-4.093-4.295-.125-.964-.188-2.15-.188-3.557v-2.646h2.198v2.603c0 2.294.152 3.875.456 4.742.303.868.923 1.302 1.858 1.302s1.53-.282 1.786-.846c.255-.564.395-1.246.419-2.046.024-.8.036-1.658.036-2.574 0-1.89-.747-3.562-2.241-5.017l-1.475-1.403c-1.292-1.263-2.155-2.326-2.589-3.189-.433-.862-.65-1.74-.65-2.631 0-.892.034-1.65.101-2.277m-65.303 36.1c0 .781.028 1.31.084 1.587.05.276.15.5.301.67.123.164.285.297.486.398.197.12.433.18.707.18.278 0 .52-.06.724-.18.193-.101.348-.234.465-.398.15-.17.254-.394.311-.67.053-.277.08-.806.08-1.587 0-.782-.027-1.314-.08-1.598a1.419 1.419 0 00-.311-.66 1.413 1.413 0 00-.465-.409 1.658 1.658 0 00-.724-.169c-.274.007-.51.064-.707.169-.2.11-.363.246-.486.41a1.337 1.337 0 00-.3.659c-.057.284-.085.816-.085 1.598zm-1.163 0c0-.924.026-1.542.078-1.854.057-.313.142-.566.258-.758.187-.365.485-.69.896-.976.404-.29.908-.437 1.512-.445.612.008 1.12.157 1.528.447.404.286.695.613.875.979.13.193.219.444.268.757.046.311.069.929.069 1.85 0 .907-.023 1.52-.069 1.84-.05.318-.139.574-.269.766-.179.367-.47.69-.874.969-.408.29-.917.442-1.528.457-.604-.015-1.108-.167-1.512-.457-.411-.28-.71-.602-.896-.969a8.37 8.37 0 01-.152-.343 2.261 2.261 0 01-.106-.424c-.052-.32-.078-.932-.078-1.84zm9.263-.555h1.765c.437-.007.764-.138.983-.393a1.25 1.25 0 00.322-.873c-.007-.414-.136-.715-.386-.9-.197-.164-.482-.246-.856-.246H70.76v2.412zm-1.163-3.478h3.002c.64 0 1.163.175 1.567.523.487.395.741.96.762 1.692-.014 1.077-.509 1.81-1.484 2.198l1.78 3.521H73.84l-1.591-3.39h-1.49v3.39h-1.163v-7.934zm-13.726 1.066h-2.106v-1.066h5.377v1.066h-2.107v6.868H55.87v-6.868m-9.442 5.012c.612.52 1.34.783 2.184.79.999-.014 1.506-.383 1.52-1.105.007-.592-.327-.948-1.002-1.068-.31-.043-.649-.092-1.018-.147-.66-.112-1.163-.365-1.507-.757-.355-.403-.533-.893-.533-1.47 0-.694.223-1.253.669-1.678.432-.42 1.044-.635 1.838-.643.955.022 1.785.295 2.49.82l-.648.988a3.446 3.446 0 00-1.904-.611c-.359 0-.657.093-.896.278-.25.193-.379.479-.385.86a.89.89 0 00.258.621c.172.19.448.32.828.393.21.036.499.078.864.124.72.102 1.253.37 1.598.801.34.425.511.919.511 1.482-.039 1.517-.937 2.287-2.697 2.31-1.137 0-2.115-.362-2.933-1.084l.763-.904m31.269-6.078h4.909v1.131H78.86v2.27h3.197v1.066H78.86v2.336h3.746v1.131h-4.91v-7.934" fill="#16222A"/></g></svg>